<svg width="133" height="133" viewBox="0 0 133 133" fill="none" xmlns="http://www.w3.org/2000/svg">
<rect width="9.97545" height="133.006" transform="matrix(1 0 0 -1 61.5183 133.009)" fill="#222222"/>
<rect opacity="0.9" width="9.97545" height="133.006" transform="matrix(0.965926 0.258819 0.258819 -0.965926 44.4724 129.45)" fill="#222222"/>
<rect opacity="0.8" width="9.97545" height="133.006" transform="matrix(0.866025 0.5 0.5 -0.866025 28.9333 121.604)" fill="#222222"/>
<rect opacity="0.7" width="9.97545" height="133.006" transform="matrix(0.707107 0.707107 0.707107 -0.707107 15.9518 110.002)" fill="#222222"/>
<rect opacity="0.6" width="9.97545" height="133.006" transform="matrix(0.5 0.866025 0.866025 -0.5 6.41568 95.4361)" fill="#222222"/>
<rect opacity="0.5" width="9.97545" height="133.006" transform="matrix(0.258819 0.965926 0.965926 -0.258819 0.975555 78.8981)" fill="#222222"/>
<rect opacity="0.4" width="9.97545" height="133.006" transform="matrix(-4.37114e-08 1 1 4.37114e-08 0 61.5155)" fill="#222222"/>
<rect opacity="0.3" width="9.97545" height="133.006" transform="matrix(-0.258819 0.965926 0.965926 0.258819 3.55801 44.4732)" fill="#222222"/>
<rect opacity="0.2" width="9.97545" height="133.006" transform="matrix(-0.5 0.866025 0.866025 0.5 11.4057 28.9314)" fill="#222222"/>
<rect opacity="0.1" width="9.97545" height="133.006" transform="matrix(-0.707107 0.707107 0.707107 0.707107 23.0053 15.9509)" fill="#222222"/>
<rect opacity="0.05" width="9.97545" height="133.006" transform="matrix(-0.866025 0.5 0.5 0.866025 37.5689 6.41599)" fill="#222222"/>
<rect opacity="0.04" width="9.97545" height="133.006" transform="matrix(-0.965926 0.258819 0.258819 0.965926 54.1084 0.975464)" fill="#222222"/>
</svg>
