<svg width="232" height="69" viewBox="0 0 232 69" fill="none" xmlns="http://www.w3.org/2000/svg">
<rect width="3.11576" height="41.5435" transform="matrix(1 0 0 -1 19.2145 55.2727)" fill="#222222"/>
<rect opacity="0.9" width="3.11576" height="41.5435" transform="matrix(0.965926 0.258819 0.258819 -0.965926 13.8907 54.1611)" fill="#222222"/>
<rect opacity="0.8" width="3.11576" height="41.5435" transform="matrix(0.866025 0.5 0.5 -0.866025 9.03674 51.7104)" fill="#222222"/>
<rect opacity="0.7" width="3.11576" height="41.5435" transform="matrix(0.707107 0.707107 0.707107 -0.707107 4.98229 48.0866)" fill="#222222"/>
<rect opacity="0.6" width="3.11576" height="41.5435" transform="matrix(0.5 0.866025 0.866025 -0.5 2.00426 43.5371)" fill="#222222"/>
<rect opacity="0.5" width="3.11576" height="41.5435" transform="matrix(0.258819 0.965926 0.965926 -0.258819 0.304886 38.3715)" fill="#222222"/>
<rect opacity="0.4" width="3.11576" height="41.5435" transform="matrix(-4.37114e-08 1 1 4.37114e-08 7.62939e-06 32.9422)" fill="#222222"/>
<rect opacity="0.3" width="3.11576" height="41.5435" transform="matrix(-0.258819 0.965926 0.965926 0.258819 1.11111 27.6192)" fill="#222222"/>
<rect opacity="0.2" width="3.11576" height="41.5435" transform="matrix(-0.5 0.866025 0.866025 0.5 3.56184 22.7648)" fill="#222222"/>
<rect opacity="0.1" width="3.11576" height="41.5435" transform="matrix(-0.707107 0.707107 0.707107 0.707107 7.18563 18.7104)" fill="#222222"/>
<rect opacity="0.05" width="3.11576" height="41.5435" transform="matrix(-0.866025 0.5 0.5 0.866025 11.7352 15.7322)" fill="#222222"/>
<rect opacity="0.04" width="3.11576" height="41.5435" transform="matrix(-0.965926 0.258819 0.258819 0.965926 16.9006 14.0329)" fill="#222222"/>
<path d="M55.9009 53L69.5139 15.2453H75.6823L89.2953 53H84.2968L80.5213 42.2585H64.6749L60.8995 53H55.9009ZM66.217 37.7917H78.9792L72.5981 19.2334L66.217 37.7917ZM91.9773 53V24.8169H96.0719L96.2314 31.9956L95.6996 31.517C96.0541 29.8508 96.6745 28.486 97.5608 27.4225C98.447 26.3235 99.5106 25.5082 100.751 24.9764C102.028 24.4446 103.392 24.1788 104.846 24.1788C107.008 24.1788 108.781 24.6573 110.163 25.6145C111.581 26.5717 112.627 27.8656 113.301 29.4963C114.01 31.0916 114.364 32.8819 114.364 34.8671V53H109.898V36.1433C109.898 34.4062 109.685 32.9528 109.259 31.7829C108.869 30.5776 108.231 29.6736 107.345 29.0709C106.459 28.4328 105.307 28.1138 103.889 28.1138C101.726 28.1138 99.936 28.8051 98.5179 30.1876C97.1354 31.5347 96.4441 33.52 96.4441 36.1433V53H91.9773ZM130.654 53.6381C128.208 53.6381 126.081 53.0355 124.273 51.8301C122.5 50.6248 121.135 48.9232 120.178 46.7253C119.221 44.5273 118.743 41.9217 118.743 38.9084C118.743 35.8951 119.221 33.2895 120.178 31.0916C121.135 28.8937 122.5 27.1921 124.273 25.9867C126.081 24.7814 128.208 24.1788 130.654 24.1788C132.533 24.1788 134.252 24.5864 135.812 25.4018C137.372 26.1817 138.542 27.2984 139.322 28.7519V15.2453H143.788V53H139.747L139.587 48.7459C138.808 50.2703 137.62 51.4756 136.025 52.3619C134.429 53.2127 132.639 53.6381 130.654 53.6381ZM131.558 49.3841C133.224 49.3841 134.624 48.9586 135.759 48.1078C136.929 47.257 137.815 46.0517 138.418 44.4919C139.02 42.8966 139.322 41.0355 139.322 38.9084C139.322 36.7105 139.02 34.8316 138.418 33.2718C137.815 31.712 136.929 30.5244 135.759 29.709C134.624 28.8582 133.224 28.4328 131.558 28.4328C129.076 28.4328 127.091 29.3723 125.602 31.2511C124.149 33.0946 123.422 35.647 123.422 38.9084C123.422 42.1344 124.149 44.6869 125.602 46.5657C127.091 48.4446 129.076 49.3841 131.558 49.3841ZM161.175 53.6381C158.587 53.6381 156.318 53.0355 154.368 51.8301C152.418 50.6248 150.912 48.9232 149.848 46.7253C148.785 44.4919 148.253 41.8863 148.253 38.9084C148.253 35.8951 148.785 33.2895 149.848 31.0916C150.912 28.8937 152.418 27.1921 154.368 25.9867C156.318 24.7814 158.587 24.1788 161.175 24.1788C163.763 24.1788 166.014 24.7814 167.928 25.9867C169.878 27.1921 171.384 28.8937 172.448 31.0916C173.511 33.2895 174.043 35.8951 174.043 38.9084C174.043 41.8863 173.511 44.4919 172.448 46.7253C171.384 48.9232 169.878 50.6248 167.928 51.8301C166.014 53.0355 163.763 53.6381 161.175 53.6381ZM161.175 49.3841C163.763 49.3841 165.766 48.4623 167.184 46.6189C168.637 44.74 169.364 42.1699 169.364 38.9084C169.364 35.647 168.637 33.0946 167.184 31.2511C165.766 29.3723 163.763 28.4328 161.175 28.4328C158.587 28.4328 156.566 29.3723 155.113 31.2511C153.659 33.0946 152.932 35.647 152.932 38.9084C152.932 42.1699 153.659 44.74 155.113 46.6189C156.566 48.4623 158.587 49.3841 161.175 49.3841ZM178.535 53V24.8169H182.47L182.683 31.9424L182.258 31.7829C182.612 29.3723 183.374 27.6175 184.544 26.5185C185.749 25.3841 187.345 24.8169 189.33 24.8169H192.095V29.0709H189.383C187.965 29.0709 186.778 29.3368 185.82 29.8686C184.899 30.3649 184.19 31.1271 183.693 32.1551C183.233 33.1477 183.002 34.424 183.002 35.9838V53H178.535ZM195.479 53V24.8169H199.946V53H195.479ZM195.372 20.4033V15.1921H200.052V20.4033H195.372ZM213.951 53.6381C211.044 53.6381 208.722 52.9645 206.985 51.6174C205.283 50.2703 204.432 48.3914 204.432 45.9808C204.432 43.5702 205.141 41.6736 206.559 40.291C207.977 38.9084 210.228 37.9336 213.313 37.3663L223.31 35.5052C223.31 33.13 222.742 31.3575 221.608 30.1876C220.509 29.0178 218.843 28.4328 216.61 28.4328C214.66 28.4328 213.118 28.876 211.983 29.7622C210.849 30.613 210.069 31.8538 209.644 33.4845L204.911 33.1123C205.443 30.4535 206.719 28.3087 208.74 26.678C210.796 25.0119 213.419 24.1788 216.61 24.1788C220.225 24.1788 222.991 25.2068 224.905 27.263C226.819 29.2836 227.776 32.0842 227.776 35.6647V47.3102C227.776 47.9483 227.883 48.4092 228.095 48.6928C228.344 48.9409 228.734 49.065 229.265 49.065H230.382V53C230.24 53.0355 230.01 53.0532 229.691 53.0532C229.372 53.0886 229.035 53.1064 228.68 53.1064C227.404 53.1064 226.358 52.9114 225.543 52.5214C224.763 52.096 224.196 51.4579 223.841 50.6071C223.487 49.7208 223.31 48.5687 223.31 47.1507L223.841 47.257C223.593 48.4623 222.991 49.5613 222.033 50.5539C221.076 51.5111 219.889 52.2733 218.471 52.8405C217.053 53.3722 215.546 53.6381 213.951 53.6381ZM214.376 49.7031C216.255 49.7031 217.85 49.3486 219.162 48.6396C220.509 47.8951 221.537 46.9025 222.246 45.6618C222.955 44.3855 223.31 42.9675 223.31 41.4077V39.387L214.163 41.0886C212.249 41.4431 210.92 41.9926 210.175 42.7371C209.466 43.4461 209.112 44.3855 209.112 45.5554C209.112 46.8671 209.573 47.8951 210.494 48.6396C211.451 49.3486 212.745 49.7031 214.376 49.7031Z" fill="#222222"/>
</svg>
