<svg width="222" height="66" viewBox="0 0 222 66" fill="none" xmlns="http://www.w3.org/2000/svg">
<rect width="2.96509" height="39.5345" transform="matrix(1 0 0 -1 18.2853 52.7681)" fill="white"/>
<rect opacity="0.9" width="2.96509" height="39.5345" transform="matrix(0.965926 0.258819 0.258819 -0.965926 13.219 51.7103)" fill="white"/>
<rect opacity="0.8" width="2.96509" height="39.5345" transform="matrix(0.866025 0.5 0.5 -0.866025 8.59972 49.3782)" fill="white"/>
<rect opacity="0.7" width="2.96509" height="39.5345" transform="matrix(0.707107 0.707107 0.707107 -0.707107 4.74135 45.9296)" fill="white"/>
<rect opacity="0.6" width="2.96509" height="39.5345" transform="matrix(0.5 0.866025 0.866025 -0.5 1.90733 41.6)" fill="white"/>
<rect opacity="0.5" width="2.96509" height="39.5345" transform="matrix(0.258819 0.965926 0.965926 -0.258819 0.290131 36.6843)" fill="white"/>
<rect opacity="0.4" width="2.96509" height="39.5345" transform="matrix(-4.37114e-08 1 1 4.37114e-08 0 31.5175)" fill="white"/>
<rect opacity="0.3" width="2.96509" height="39.5345" transform="matrix(-0.258819 0.965926 0.965926 0.258819 1.05737 26.4519)" fill="white"/>
<rect opacity="0.2" width="2.96509" height="39.5345" transform="matrix(-0.5 0.866025 0.866025 0.5 3.3896 21.8322)" fill="white"/>
<rect opacity="0.1" width="2.96509" height="39.5345" transform="matrix(-0.707107 0.707107 0.707107 0.707107 6.83815 17.9739)" fill="white"/>
<rect opacity="0.05" width="2.96509" height="39.5345" transform="matrix(-0.866025 0.5 0.5 0.866025 11.1677 15.1398)" fill="white"/>
<rect opacity="0.04" width="2.96509" height="39.5345" transform="matrix(-0.965926 0.258819 0.258819 0.965926 16.0833 13.5226)" fill="white"/>
<path d="M53.1977 51L66.1524 15.071H72.0224L84.9771 51H80.2203L76.6274 40.778H61.5474L57.9545 51H53.1977ZM63.0149 36.5272H75.1599L69.0874 18.8663L63.0149 36.5272ZM87.5295 51V24.1798H91.426L91.5778 31.0113L91.0718 30.5559C91.4091 28.9703 91.9995 27.6715 92.8429 26.6594C93.6863 25.6136 94.6984 24.8376 95.8792 24.3316C97.0937 23.8255 98.3925 23.5725 99.7757 23.5725C101.834 23.5725 103.52 24.028 104.836 24.9388C106.186 25.8497 107.181 27.0811 107.822 28.6329C108.496 30.1511 108.834 31.8547 108.834 33.744V51H104.583V34.9585C104.583 33.3054 104.381 31.9222 103.976 30.8089C103.605 29.6619 102.997 28.8016 102.154 28.2281C101.311 27.6209 100.214 27.3172 98.8648 27.3172C96.8069 27.3172 95.1032 27.9751 93.7538 29.2908C92.4381 30.5728 91.7802 32.462 91.7802 34.9585V51H87.5295ZM124.336 51.6073C122.008 51.6073 119.984 51.0337 118.263 49.8867C116.576 48.7397 115.278 47.1203 114.367 45.0287C113.456 42.9371 113 40.4575 113 37.5899C113 34.7223 113.456 32.2427 114.367 30.1511C115.278 28.0594 116.576 26.4401 118.263 25.2931C119.984 24.146 122.008 23.5725 124.336 23.5725C126.124 23.5725 127.76 23.9605 129.244 24.7364C130.729 25.4786 131.842 26.5413 132.584 27.9245V15.071H136.835V51H132.989L132.837 46.9517C132.095 48.4023 130.965 49.5493 129.447 50.3927C127.929 51.2024 126.225 51.6073 124.336 51.6073ZM125.196 47.5589C126.782 47.5589 128.114 47.1541 129.194 46.3444C130.307 45.5347 131.15 44.3877 131.724 42.9033C132.297 41.3852 132.584 39.6141 132.584 37.5899C132.584 35.4982 132.297 33.7102 131.724 32.2258C131.15 30.7414 130.307 29.6113 129.194 28.8354C128.114 28.0257 126.782 27.6209 125.196 27.6209C122.834 27.6209 120.945 28.5149 119.528 30.3029C118.145 32.0572 117.454 34.4862 117.454 37.5899C117.454 40.6599 118.145 43.0889 119.528 44.8769C120.945 46.6649 122.834 47.5589 125.196 47.5589ZM153.381 51.6073C150.918 51.6073 148.759 51.0337 146.903 49.8867C145.048 48.7397 143.614 47.1203 142.602 45.0287C141.59 42.9033 141.084 40.4237 141.084 37.5899C141.084 34.7223 141.59 32.2427 142.602 30.1511C143.614 28.0594 145.048 26.4401 146.903 25.2931C148.759 24.146 150.918 23.5725 153.381 23.5725C155.843 23.5725 157.986 24.146 159.807 25.2931C161.663 26.4401 163.097 28.0594 164.109 30.1511C165.121 32.2427 165.627 34.7223 165.627 37.5899C165.627 40.4237 165.121 42.9033 164.109 45.0287C163.097 47.1203 161.663 48.7397 159.807 49.8867C157.986 51.0337 155.843 51.6073 153.381 51.6073ZM153.381 47.5589C155.843 47.5589 157.749 46.6818 159.099 44.9275C160.482 43.1395 161.174 40.6936 161.174 37.5899C161.174 34.4862 160.482 32.0572 159.099 30.3029C157.749 28.5149 155.843 27.6209 153.381 27.6209C150.918 27.6209 148.995 28.5149 147.612 30.3029C146.229 32.0572 145.537 34.4862 145.537 37.5899C145.537 40.6936 146.229 43.1395 147.612 44.9275C148.995 46.6818 150.918 47.5589 153.381 47.5589ZM169.902 51V24.1798H173.646L173.849 30.9607L173.444 30.8089C173.781 28.5149 174.507 26.8449 175.62 25.7991C176.767 24.7195 178.285 24.1798 180.174 24.1798H182.806V28.2281H180.225C178.875 28.2281 177.745 28.4811 176.834 28.9872C175.957 29.4595 175.283 30.1848 174.81 31.1632C174.372 32.1078 174.152 33.3223 174.152 34.8067V51H169.902ZM186.026 51V24.1798H190.277V51H186.026ZM185.925 19.9796V15.0204H190.378V19.9796H185.925ZM203.604 51.6073C200.838 51.6073 198.628 50.9663 196.975 49.6843C195.356 48.4023 194.546 46.6143 194.546 44.3202C194.546 42.0262 195.221 40.2213 196.57 38.9056C197.92 37.5899 200.062 36.6621 202.997 36.1224L212.511 34.3512C212.511 32.0909 211.971 30.4041 210.891 29.2908C209.846 28.1775 208.26 27.6209 206.135 27.6209C204.279 27.6209 202.812 28.0426 201.732 28.886C200.653 29.6956 199.91 30.8764 199.505 32.4283L195.002 32.074C195.508 29.5438 196.722 27.5028 198.645 25.9509C200.602 24.3653 203.098 23.5725 206.135 23.5725C209.576 23.5725 212.207 24.5509 214.029 26.5076C215.851 28.4305 216.762 31.0957 216.762 34.503V45.5853C216.762 46.1926 216.863 46.6312 217.065 46.9011C217.301 47.1372 217.672 47.2553 218.178 47.2553H219.241V51C219.106 51.0337 218.887 51.0506 218.583 51.0506C218.28 51.0843 217.959 51.1012 217.622 51.1012C216.407 51.1012 215.412 50.9157 214.636 50.5446C213.894 50.1397 213.354 49.5325 213.017 48.7228C212.679 47.8794 212.511 46.783 212.511 45.4335L213.017 45.5347C212.781 46.6818 212.207 47.7276 211.296 48.6722C210.385 49.5831 209.255 50.3084 207.906 50.8482C206.556 51.3542 205.123 51.6073 203.604 51.6073ZM204.009 47.8625C205.797 47.8625 207.315 47.5252 208.564 46.8505C209.846 46.142 210.824 45.1974 211.499 44.0166C212.173 42.8021 212.511 41.4527 212.511 39.9683V38.0453L203.807 39.6647C201.985 40.002 200.72 40.5249 200.012 41.2334C199.337 41.9081 198.999 42.8021 198.999 43.9154C198.999 45.1636 199.438 46.142 200.315 46.8505C201.226 47.5252 202.457 47.8625 204.009 47.8625Z" fill="white"/>
</svg>
